<svg width="31" height="30" viewBox="0 0 31 30" fill="none" xmlns="http://www.w3.org/2000/svg">
<path fill-rule="evenodd" clip-rule="evenodd" d="M9.64342 2.26421C9.64342 1.95261 9.89603 1.7 10.2076 1.7H19.8616C20.1732 1.7 20.4258 1.95261 20.4258 2.26421V5.7398C20.4258 5.75205 20.4261 5.76424 20.4266 5.77636H9.64265C9.64316 5.76424 9.64342 5.75205 9.64342 5.7398V2.26421ZM7.94419 5.77636C7.94368 5.76424 7.94342 5.75205 7.94342 5.7398V2.26421C7.94342 1.01372 8.95714 0 10.2076 0H19.8616C21.1121 0 22.1258 1.01372 22.1258 2.26421V5.7398C22.1258 5.75205 22.1256 5.76424 22.1251 5.77636H24.8084H29.2191C29.6885 5.77636 30.0691 6.15692 30.0691 6.62636C30.0691 7.09581 29.6885 7.47636 29.2191 7.47636H25.6584V27.7716C25.6584 29.0003 24.6623 29.9963 23.4337 29.9963H6.6373C5.40861 29.9963 4.41256 29.0003 4.41256 27.7716V7.47636H0.85C0.380558 7.47636 0 7.09581 0 6.62636C0 6.15692 0.380558 5.77636 0.85 5.77636H5.26256H7.94419ZM6.11256 27.7716V7.47636H23.9584V27.7716C23.9584 28.0614 23.7235 28.2963 23.4337 28.2963H6.6373C6.3475 28.2963 6.11256 28.0614 6.11256 27.7716Z" fill="black"/>
</svg>
